<svg xmlns="http://www.w3.org/2000/svg" viewBox="0 0 600 600"><path fill-rule="evenodd" d="M368.475 299.913L593.724 74.665c8.137-8.138 8.137-21.296 0-29.433L554.595 6.103c-8.137-8.137-21.295-8.137-29.433 0L299.913 231.352 74.665 6.103c-8.138-8.137-21.296-8.137-29.433 0L6.103 45.232c-8.137 8.137-8.137 21.295 0 29.433l225.249 225.248L6.103 525.163c-8.137 8.137-8.137 21.295 0 29.432l39.129 39.129c8.137 8.137 21.295 8.137 29.433 0l225.248-225.249 225.25 225.249c8.137 8.137 21.295 8.137 29.432 0l39.129-39.129c8.137-8.137 8.137-21.295 0-29.433L368.475 299.913z"/></svg>