<svg xmlns="http://www.w3.org/2000/svg" viewBox="0 0 96 28.14"><path d="M65.58 10.37c0 2.71-2.67 8.65-3.53 10.3-3.59 6.9-8.39 6.86-13.8 6.86-2.65 0-8.55 0-8.55-4.93 0-2.21 1.93-6.27 3.52-10.12.68-1.64 3.55-7.14 13.33-7.14 4.03 0 9.03.63 9.03 5.03zm-11.32.32a2.69 2.69 0 0 0-2.14.74c-1.72 2.37-2.85 8.3-2.85 10 0 1.13.78 1 1.83 1a2.92 2.92 0 0 0 2.14-.56c1.5-1.57 2.8-8.67 2.8-10 0-.91-.07-1.23-1.78-1.23zm-23.91.21c0 6.23-3.83 7.53-8.09 7.53h-3c-3 0-9-.18-9-.18-.48 0-.84-.11-.84.18 0 2 2.3 5.08 5.8 5.08a7 7 0 0 0 4.92-2.11s3.17-.37 5.2-.37 4.89.32 4.89 1.44c0 2.2-7.13 5.66-13.11 5.66-9 0-17.13-4.9-17.13-10.8C-.01 7.45 19.07 0 24.64 0c5 0 5.7 8 5.7 10.9zm-7.79-.68c0-1.27-.06-3.09-1-3.09-3.24 0-8.93 5-9.49 5.52s-.1.39.46.39h7.29c2.59 0 2.81-.43 2.81-2.81zm16.56 4.23a12.4 12.4 0 0 1-.88 2.77c-.7 1.72-2.54 2-3.83 2-1.93 0-2.6-.7-2.6-1.8a9.12 9.12 0 0 1 .83-2.54c.87-2 2.43-2.21 4-2.21 1.3 0 2.53.55 2.53 1.77zm56.86-4c0 3.21-3.82 14.22-4.45 15.88-.41 1.09-1.2 1.24-2.23 1.24a6.63 6.63 0 0 1-3.93-1 .6.6 0 0 1-.2-.71c.7-2.07 3.34-9.55 3.34-11.17 0-.89-.26-1.55-1.14-1.55-5.36 0-15.2 11.42-17 13.47a3.11 3.11 0 0 1-2.5.8 6.79 6.79 0 0 1-2.75-.74c-.4-.2-.41-.43-.3-.91l.34-1.36a160.81 160.81 0 0 1 6-16.76c.09-.22.19-.39.68-.47a9.9 9.9 0 0 1 2-.2 7.64 7.64 0 0 1 2.92.45v1.2c0 .53.06 2.32 1.75 2.32 2.84 0 8-4.89 12.58-4.89 4 0 4.94 2.48 4.94 4.4z" fill="#fff"/></svg>