<svg xmlns="http://www.w3.org/2000/svg" viewBox="0 -410 3080 1900" version="1"><path style="marker:none" d="M-105.985-355.554h3288.948m-3288.948 1792.75h3288.948M-105.985 5.802h3288.948M-105.985 1084.7h3288.948M-105.985-47.32h3288.948" color="#000" fill="#f9f9f9" fill-rule="evenodd" stroke="#b3b3b3" stroke-width="12.391" stroke-linecap="round" stroke-linejoin="round" overflow="visible"/><path d="M1538.793-25.348L1455.9 882.454c-4.293 42.386-6.44 70.285-6.439 83.698 0 21.461 4.023 37.825 12.072 49.092 10.193 15.56 24.009 27.095 41.447 34.606 17.436 7.512 46.81 11.267 88.124 11.267l-8.853 29.778h-429.757l8.853-29.778h18.51c34.874 0 63.31-7.511 85.308-22.534 15.558-10.194 27.63-27.094 36.215-50.701 5.901-16.633 11.535-55.799 16.9-117.5l12.877-138.423H1018.9L907.84 882.454c-25.218 33.802-41.045 58.08-47.483 72.834-6.439 14.754-9.658 28.57-9.658 41.446 0 17.17 6.975 31.924 20.925 44.264 13.95 12.34 37.02 19.046 69.212 20.12l-8.853 29.777h-322.72l8.852-29.778c39.703-1.61 74.712-14.888 105.025-39.837 30.314-24.948 75.516-78.198 135.607-159.75l651.88-886.878h28.167zm-159.348 267.995L1063.163 673.21h274.433l41.849-430.562zm1091.293 119.914l-156.933 545.646-17.706 73.236c-1.61 6.975-2.415 12.877-2.414 17.706 0 8.584 2.682 16.096 8.048 22.534 4.291 4.829 9.657 7.243 16.095 7.243 6.975 0 16.096-4.292 27.363-12.877 20.924-15.559 48.823-47.75 83.698-96.574l27.363 19.314c-37.02 55.8-75.114 98.319-114.28 127.56-39.167 29.24-75.382 43.86-108.646 43.86-23.072 0-40.374-5.767-51.91-17.303-11.535-11.535-17.303-28.301-17.302-50.299 0-26.29 5.901-60.895 17.705-103.818l16.9-60.359c-70.285 91.746-134.936 155.861-193.953 192.345-42.386 26.29-83.967 39.434-124.743 39.434-39.166 0-72.967-16.23-101.403-48.69-28.436-32.459-42.654-77.125-42.654-133.997 0-85.307 25.62-175.31 76.857-270.006 51.238-94.697 116.292-170.48 195.162-227.353 61.7-45.068 119.913-67.602 174.639-67.602 32.728 0 59.956 8.585 81.686 25.753 21.729 17.17 38.227 45.605 49.495 85.308l28.972-91.746 127.961-19.315zm-286.505 41.849c-34.338 0-70.821 16.096-109.45 48.287-54.727 45.605-103.416 113.207-146.07 202.807-42.654 89.6-63.98 170.615-63.98 243.046 0 36.484 9.12 65.322 27.362 86.515 18.242 21.193 39.166 31.789 62.774 31.789 58.48 0 122.059-43.19 190.735-129.571 91.745-114.816 137.618-232.584 137.619-353.302-.001-45.604-8.854-78.6-26.559-98.99-17.705-20.387-41.85-30.58-72.43-30.581z" font-size="1648.208" font-weight="400" font-family="Lello"/><text x="-471.24" y="-946.412" font-size="12" font-weight="400" font-family="Lello"/></svg>