<svg xmlns="http://www.w3.org/2000/svg" viewBox="0 0 1000 1000"><path d="M669 753.9c-53.2 39.9-115.5 59.8-179.2 58.9-8.4-.1-78.5-11.8-84.5-13.8-2.9-1-58-25.8-58.3-26-25.6-15-49-33.8-69.6-55.7-.3-.3-21.7-25.9-22.9-27.6-41.9-55.9-72.8-137.2-72.8-214.3H255l-122.5-196L10 475.5h73.5c0 90.5 33.5 185 78.4 254.4.6 1 46.6 59.9 47.3 60.7 26.9 28.8 57.4 53 90.5 72.5.9.5 56.6 27.3 65.4 30.5 4.2 1.5 28.1 8.9 36 10.9 5.3 1.3 50.1 9.4 52.8 9.7 13.5 1.4 26.9 2.4 40.3 2.4 81.9 0 161.7-26.8 230.3-78 21.8-16.4 27.1-48.6 11.8-72-15.4-23.4-45.5-29.1-67.3-12.7M331 246.1c53.2-39.9 115.5-59.8 179.2-58.9 8.4.1 78.5 11.8 84.5 13.8 2.9 1 58 25.8 58.4 26 25.6 15 49 33.8 69.6 55.7.3.3 21.7 25.9 22.9 27.6 41.8 55.9 72.8 137.2 72.8 214.3H745l122.5 196 122.5-196h-73.5c0-90.5-33.5-185-78.4-254.4-.5-1-46.5-59.9-47.3-60.7-26.9-28.8-57.4-53-90.5-72.5-.9-.5-56.6-27.3-65.4-30.5-4.2-1.5-28.1-8.9-36-10.9-5.3-1.3-50.2-9.4-52.8-9.7-13.5-1.4-26.9-2.4-40.3-2.4-81.9 0-161.7 26.8-230.3 78-21.8 16.4-27.1 48.6-11.8 72 15.4 23.3 45.5 29 67.3 12.6"/></svg>